<?xml version="1.0" encoding="UTF-8"?>
<!DOCTYPE svg
PUBLIC "-//W3C//DTD SVG 1.1//EN"
       "http://www.w3.org/Graphics/SVG/1.1/DTD/svg11.dtd">
<svg viewBox="405 138 818 332" width="413px" height="194px" xmlns="http://www.w3.org/2000/svg" version="1.1">
   <line x1="713" y1="303" x2="703" y2="303" style="stroke:#cb0;stroke-width:1;"/>
   <line x1="520" y1="207" x2="510" y2="207" style="stroke:#cb0;stroke-width:1;"/>
   <line x1="703" y1="303" x2="520" y2="207" style="stroke:#cb0;stroke-width:1;"/>
   <line x1="705.5" y1="303" x2="709.03553390593" y2="306.53553390593" style="stroke:#cb0;stroke-width:2;"/>
   <line x1="705.5" y1="303" x2="709.03553390593" y2="299.46446609407" style="stroke:#cb0;stroke-width:2;"/>
   <line x1="515" y1="207" x2="518.53553390593" y2="210.53553390593" style="stroke:#cb0;stroke-width:2;"/>
   <line x1="515" y1="207" x2="518.53553390593" y2="203.46446609407" style="stroke:#cb0;stroke-width:2;"/>
   <rect width="90" height="20" x="713" y="153" style="fill:#007;stroke:black;"/>
   <text width="90" height="20" x="718" y="167" style="fill:#fff;" font-family="Arial" font-size="16px"> images</text>
   <rect width="90" height="20" x="713" y="173" style="fill:#aea;stroke:black;"/>
   <text width="90" height="20" x="718" y="187" style="fill:black;" font-family="Arial" font-size="16px">id</text>
   <rect width="90" height="20" x="713" y="193" style="fill:none;stroke:black;"/>
   <text width="90" height="20" x="718" y="207" style="fill:black;" font-family="Arial" font-size="16px">title</text>
   <rect width="90" height="20" x="713" y="213" style="fill:none;stroke:black;"/>
   <text width="90" height="20" x="718" y="227" style="fill:black;" font-family="Arial" font-size="16px">url_address</text>
   <rect width="90" height="20" x="713" y="233" style="fill:none;stroke:black;"/>
   <text width="90" height="20" x="718" y="247" style="fill:black;" font-family="Arial" font-size="16px">image</text>
   <rect width="90" height="20" x="713" y="253" style="fill:none;stroke:black;"/>
   <text width="90" height="20" x="718" y="267" style="fill:black;" font-family="Arial" font-size="16px">date</text>
   <rect width="90" height="20" x="713" y="273" style="fill:none;stroke:black;"/>
   <text width="90" height="20" x="718" y="287" style="fill:black;" font-family="Arial" font-size="16px">description</text>
   <rect width="90" height="20" x="713" y="293" style="fill:none;stroke:black;"/>
   <text width="90" height="20" x="718" y="307" style="fill:black;" font-family="Arial" font-size="16px">FK_user</text>
   <rect width="90" height="20" x="420" y="177" style="fill:#007;stroke:black;"/>
   <text width="90" height="20" x="425" y="191" style="fill:#fff;" font-family="Arial" font-size="16px"> users</text>
   <rect width="90" height="20" x="420" y="197" style="fill:#aea;stroke:black;"/>
   <text width="90" height="20" x="425" y="211" style="fill:black;" font-family="Arial" font-size="16px">id</text>
   <rect width="90" height="20" x="420" y="217" style="fill:none;stroke:black;"/>
   <text width="90" height="20" x="425" y="231" style="fill:black;" font-family="Arial" font-size="16px">url_address</text>
   <rect width="90" height="20" x="420" y="237" style="fill:none;stroke:black;"/>
   <text width="90" height="20" x="425" y="251" style="fill:black;" font-family="Arial" font-size="16px">username</text>
   <rect width="90" height="20" x="420" y="257" style="fill:none;stroke:black;"/>
   <text width="90" height="20" x="425" y="271" style="fill:black;" font-family="Arial" font-size="16px">password</text>
   <rect width="90" height="20" x="420" y="277" style="fill:none;stroke:black;"/>
   <text width="90" height="20" x="425" y="291" style="fill:black;" font-family="Arial" font-size="16px">email</text>
   <rect width="90" height="20" x="420" y="297" style="fill:none;stroke:black;"/>
   <text width="90" height="20" x="425" y="311" style="fill:black;" font-family="Arial" font-size="16px">date</text>
</svg>
