<?xml version="1.0" encoding="UTF-8"?>
<!DOCTYPE svg
PUBLIC "-//W3C//DTD SVG 1.1//EN"
       "http://www.w3.org/Graphics/SVG/1.1/DTD/svg11.dtd">
<svg viewBox="255 278 752 660" width="497px" height="382px" xmlns="http://www.w3.org/2000/svg" version="1.1">
   <line x1="360" y1="635" x2="370" y2="635" style="stroke:#cb0;stroke-width:1;"/>
   <line x1="637" y1="323" x2="647" y2="323" style="stroke:#cb0;stroke-width:1;"/>
   <line x1="370" y1="635" x2="637" y2="323" style="stroke:#cb0;stroke-width:1;"/>
   <line x1="367.5" y1="635" x2="363.96446609407" y2="638.53553390593" style="stroke:#cb0;stroke-width:2;"/>
   <line x1="367.5" y1="635" x2="363.96446609407" y2="631.46446609407" style="stroke:#cb0;stroke-width:2;"/>
   <line x1="642" y1="323" x2="638.46446609407" y2="326.53553390593" style="stroke:#cb0;stroke-width:2;"/>
   <line x1="642" y1="323" x2="638.46446609407" y2="319.46446609407" style="stroke:#cb0;stroke-width:2;"/>
   <rect width="90" height="20" x="270" y="505" style="fill:#007;stroke:black;"/>
   <text width="90" height="20" x="275" y="519" style="fill:#fff;" font-family="Arial" font-size="16px"> images</text>
   <rect width="90" height="20" x="270" y="525" style="fill:#aea;stroke:black;"/>
   <text width="90" height="20" x="275" y="539" style="fill:black;" font-family="Arial" font-size="16px">id</text>
   <rect width="90" height="20" x="270" y="545" style="fill:none;stroke:black;"/>
   <text width="90" height="20" x="275" y="559" style="fill:black;" font-family="Arial" font-size="16px">title</text>
   <rect width="90" height="20" x="270" y="565" style="fill:none;stroke:black;"/>
   <text width="90" height="20" x="275" y="579" style="fill:black;" font-family="Arial" font-size="16px">image</text>
   <rect width="90" height="20" x="270" y="585" style="fill:none;stroke:black;"/>
   <text width="90" height="20" x="275" y="599" style="fill:black;" font-family="Arial" font-size="16px">date</text>
   <rect width="90" height="20" x="270" y="605" style="fill:none;stroke:black;"/>
   <text width="90" height="20" x="275" y="619" style="fill:black;" font-family="Arial" font-size="16px">description</text>
   <rect width="90" height="20" x="270" y="625" style="fill:none;stroke:black;"/>
   <text width="90" height="20" x="275" y="639" style="fill:black;" font-family="Arial" font-size="16px">FK_user</text>
   <rect width="90" height="20" x="647" y="293" style="fill:#007;stroke:black;"/>
   <text width="90" height="20" x="652" y="307" style="fill:#fff;" font-family="Arial" font-size="16px"> users</text>
   <rect width="90" height="20" x="647" y="313" style="fill:#aea;stroke:black;"/>
   <text width="90" height="20" x="652" y="327" style="fill:black;" font-family="Arial" font-size="16px">id</text>
   <rect width="90" height="20" x="647" y="333" style="fill:none;stroke:black;"/>
   <text width="90" height="20" x="652" y="347" style="fill:black;" font-family="Arial" font-size="16px">url_address</text>
   <rect width="90" height="20" x="647" y="353" style="fill:none;stroke:black;"/>
   <text width="90" height="20" x="652" y="367" style="fill:black;" font-family="Arial" font-size="16px">username</text>
   <rect width="90" height="20" x="647" y="373" style="fill:none;stroke:black;"/>
   <text width="90" height="20" x="652" y="387" style="fill:black;" font-family="Arial" font-size="16px">password</text>
   <rect width="90" height="20" x="647" y="393" style="fill:none;stroke:black;"/>
   <text width="90" height="20" x="652" y="407" style="fill:black;" font-family="Arial" font-size="16px">email</text>
   <rect width="90" height="20" x="647" y="413" style="fill:none;stroke:black;"/>
   <text width="90" height="20" x="652" y="427" style="fill:black;" font-family="Arial" font-size="16px">date</text>
</svg>
